<svg width="40" height="40" viewBox="0 0 40 40" fill="none" xmlns="http://www.w3.org/2000/svg">
<path d="M19.75 0C8.83812 0 0 9.06166 0 20.2495C0 29.21 5.65331 36.7783 13.5039 39.4613C14.4914 39.6385 14.8619 39.031 14.8619 38.4995C14.8619 38.0185 14.8372 36.4239 14.8372 34.728C9.875 35.6645 8.59133 33.4877 8.19633 32.3487C7.97414 31.7665 7.01113 29.9693 6.17176 29.4884C5.48051 29.1087 4.493 28.1722 6.14707 28.1469C7.70238 28.1216 8.81337 29.615 9.18368 30.2225C10.9612 33.2852 13.8003 32.4246 14.9359 31.8931C15.1088 30.5768 15.6271 29.6909 16.1949 29.1847C11.8005 28.6784 7.20873 26.9319 7.20873 19.1864C7.20873 16.9843 7.974 15.1618 9.23306 13.7444C9.03556 13.2381 8.34433 11.1625 9.43058 8.37823C9.43058 8.37823 11.0847 7.8467 14.8619 10.4538C16.4419 9.99821 18.1206 9.7704 19.7994 9.7704C21.4781 9.7704 23.1569 9.99821 24.7369 10.4538C28.5141 7.82138 30.1682 8.37823 30.1682 8.37823C31.2544 11.1625 30.5632 13.2381 30.3657 13.7444C31.6248 15.1618 32.39 16.959 32.39 19.1864C32.39 26.9572 27.7733 28.6784 23.3789 29.1847C24.0949 29.8175 24.7122 31.0324 24.7122 32.9308C24.7122 35.6392 24.6875 37.816 24.6875 38.4995C24.6875 39.031 25.0577 39.6638 26.0452 39.4613C34.0647 36.6864 39.4986 28.9275 39.5 20.2495C39.5 9.06166 30.6619 0 19.75 0Z" fill="black"/>
</svg>
